<svg height='100px' width='100px'  fill="#d81414" xmlns="http://www.w3.org/2000/svg" data-name="Layer 1" viewBox="0 0 96 96" x="0px" y="0px"><title>Artboard 137</title><path d="M92,34.7H4a2,2,0,1,1,0-4H92a2,2,0,0,1,0,4Z"></path><path d="M20.18,25.13H16.51a5,5,0,0,1-4.94-4.95V7A5,5,0,0,1,16.51,2h3.67a5,5,0,0,1,4.95,5V20.18A5,5,0,0,1,20.18,25.13ZM16.51,6a.94.94,0,0,0-.94,1V20.18a.94.94,0,0,0,.94.95h3.67a.94.94,0,0,0,.95-.95V7a.94.94,0,0,0-.95-1Z"></path><path d="M78.53,25.13H74.86a5,5,0,0,1-5-4.95V7a5,5,0,0,1,5-4.95h3.67a5,5,0,0,1,5,5V20.18A5,5,0,0,1,78.53,25.13ZM74.86,6a1,1,0,0,0-1,1V20.18a1,1,0,0,0,1,.95h3.67a1,1,0,0,0,1-.95V7a1,1,0,0,0-1-1Z"></path><path d="M86.66,94H9.34A7.34,7.34,0,0,1,2,86.66V18.9a7.34,7.34,0,0,1,7.34-7.33h4.23a2,2,0,0,1,2,2v6.61a.94.94,0,0,0,.94.95h3.67a.94.94,0,0,0,.95-.95V13.57a2,2,0,0,1,2-2H71.91a2,2,0,0,1,2,2v6.61a1,1,0,0,0,1,.95h3.67a1,1,0,0,0,1-.95V13.57a2,2,0,0,1,2-2h5.18A7.34,7.34,0,0,1,94,18.9V86.66A7.34,7.34,0,0,1,86.66,94ZM9.34,15.57A3.34,3.34,0,0,0,6,18.9V86.66A3.35,3.35,0,0,0,9.34,90H86.66A3.35,3.35,0,0,0,90,86.66V18.9a3.34,3.34,0,0,0-3.34-3.33H83.48v4.61a5,5,0,0,1-5,4.95H74.86a5,5,0,0,1-5-4.95V15.57H25.13v4.61a5,5,0,0,1-4.95,4.95H16.51a5,5,0,0,1-4.94-4.95V15.57Z"></path><path d="M48,79c-5.81,0-15.7-11.29-17.77-13.73A13.51,13.51,0,0,1,48,45a13.46,13.46,0,0,1,8.14-2.74h0a13.44,13.44,0,0,1,9.54,3.94h0a13.54,13.54,0,0,1,.09,19C63.71,67.69,53.84,79,48,79ZM39.86,46.28a9.51,9.51,0,0,0-6.72,16.25l.12.12C38.3,68.61,45.37,75,48,75h0c2.65,0,9.71-6.45,14.73-12.43l.11-.12a9.51,9.51,0,0,0,0-13.45h0a9.44,9.44,0,0,0-6.71-2.78h0a9.44,9.44,0,0,0-6.72,2.8L48,50.46l-1.42-1.41A9.5,9.5,0,0,0,39.86,46.28Z"></path></svg>